<svg xmlns="http://www.w3.org/2000/svg" viewBox="0 0 128 128"><defs><linearGradient id="b" x2="1" y2="1"><stop stop-color="#e1e9bf"/><stop offset="1" stop-color="#82ac87"/></linearGradient></defs><rect width="128" height="128" rx="30" fill="url(#b)"/><circle cx="64" cy="62" r="45" fill="#f6f1cc" opacity=".6"/><path d="m37 96 44-65 13-8 1 15-48 63" fill="#cfdfd3" stroke="#3f695b" stroke-width="4" stroke-linejoin="round"/><path d="m82 33-36 53" stroke="#fff5cf" stroke-width="5"/><path d="m28 79 29 21M40 94l-9 13" stroke="#8d7151" stroke-width="10" stroke-linecap="round"/><path d="m28 79 29 21" stroke="#ecc772" stroke-width="9" stroke-linecap="round"/><path d="m35 29 6 12 14 3-10 10 2 14-12-7-13 6 3-14-10-10 14-2Z" fill="#ecc376" stroke="#a98d51" stroke-width="3"/><path d="m98 68 4 9 10 3-10 3-4 10-3-10-10-3 10-3Z" fill="#fff2b3"/></svg>
